<svg width="14" height="14" viewBox="0 0 14 14" fill="none" xmlns="http://www.w3.org/2000/svg">
<path d="M13.8782 1.71764L12.9906 1.06693C12.8519 0.965262 12.6477 0.981078 12.5317 1.10308L12.4813 1.17313L11.0894 3.17946C10.9381 3.34666 10.9835 3.60875 11.1903 3.76013L11.3794 3.89569C11.5861 4.04707 11.8786 4.03125 12.0299 3.86406L13.8757 2.17629L13.9337 2.12433C14.0396 2.00006 14.0169 1.81931 13.8782 1.71764Z" fill="black"/>
<path d="M10.7692 0.258875L9.72716 0.00911179C9.56375 -0.0289876 9.39561 0.0556777 9.35061 0.201725L9.33877 0.277924L9.01195 2.47499C8.95511 2.66972 9.10668 2.87715 9.34824 2.93642L9.57086 2.9851C9.81242 3.04225 10.0564 2.93007 10.1132 2.73322L10.9658 0.654685L10.9918 0.589069C11.0297 0.443022 10.9326 0.296974 10.7692 0.258875Z" fill="black"/>
<path d="M9.73899 8.65184C9.82595 8.62866 12 8.00738 12 5.86301C12 5.01686 11.7543 4.34226 11.2717 3.85311C10.813 3.38946 10.139 3 9.28461 3C7.90627 3 7.41928 3.35005 6.65402 3.73256C6.24965 3.93425 4.27126 5.42487 3.01466 8.10706C1.61458 9.03667 0.721045 7.77787 0.60582 7.8706C-0.0572638 8.40843 -0.213795 9.29168 0.325368 10.0428C0.512336 10.2746 0.947146 10.7846 2.55377 10.5111C2.37332 11.4152 2.63855 12.6786 3.63427 13.439C4.24517 13.905 4.96478 14 5.85832 14C6.48879 14 7.16927 13.8632 7.88018 13.592C8.50196 13.3555 9.0346 13.082 9.64116 12.6531C9.64116 12.6531 10.5521 11.9762 10.0325 11.1973C9.7216 10.7336 9.24113 10.5296 8.90633 10.7151C8.86502 10.7383 8.69545 10.8449 8.67371 10.8588C8.35195 11.0674 8.02367 11.2344 7.69539 11.3549C7.30623 11.4963 6.9323 11.5682 6.58662 11.5682C5.92354 11.5682 5.47568 11.3804 5.25176 11.0095C5.07783 10.722 4.96913 10.3024 5.16697 9.96396L9.73899 8.65184ZM8.9672 5.16754C9.35853 5.1235 9.62594 5.32518 9.7216 5.54773C9.81291 5.75637 9.72595 6.03456 9.58898 6.20611C9.48463 6.35448 9.2107 6.50284 8.97155 6.56544L5.87354 7.49041C7.26275 5.16291 8.72154 5.19536 8.9672 5.16754Z" fill="black"/>
</svg>
