<svg width="14" height="15" viewBox="0 0 14 15" fill="none" xmlns="http://www.w3.org/2000/svg">
<path d="M13.9067 2.25658L13.1141 1.4622C12.9895 1.3376 12.7887 1.33587 12.6624 1.45701L12.607 1.52797L11.0286 3.56669C10.8625 3.73456 10.878 4.02185 11.0615 4.2053L11.2311 4.37145C11.4146 4.5549 11.7001 4.56874 11.8663 4.40087L13.8479 2.75328L13.9102 2.70136C14.0313 2.57848 14.0296 2.37945 13.9067 2.25658Z" fill="#212121"/>
<path d="M10.9909 0.352808L9.92136 0.0153287C9.75348 -0.0383219 9.57523 0.0534032 9.51984 0.219547L9.50427 0.309541L9.04911 2.84842C8.97988 3.07341 9.12698 3.32089 9.37447 3.39877L9.60292 3.46627C9.8504 3.54415 10.11 3.423 10.1792 3.19975L11.1726 0.823548L11.2038 0.74913C11.2505 0.581255 11.1571 0.406458 10.9909 0.352808Z" fill="#212121"/>
<path d="M12.0499 7.78429C11.9547 6.36341 11.2624 5.30944 9.97479 4.62237C9.06446 4.13951 8.05376 3.89895 6.9444 3.89895H4.14419C4.14419 3.89895 3.11791 3.8678 1.96356 3.18592L0.710558 2.44692C0.61018 2.38808 0.565182 2.4625 0.563452 2.46423C0.284815 2.90901 -0.990683 5.20906 1.57243 6.34611C2.25777 6.60744 2.81504 6.61436 2.81504 6.61436L7.69205 6.68532C8.31682 6.68532 8.74083 6.77185 8.73045 8.00408C8.72698 8.41944 8.72872 8.52847 8.64045 9.05459C8.457 10.1363 8.08837 10.9185 7.5311 11.3996C7.18843 11.6956 6.84922 11.8444 6.51174 11.8444H6.03581H4.78108H4.75685L5.52699 7.47277H2.62467L0.646524 9.72609H2.13143L1.76453 11.8444L1.34225 14.2743H4.32764H4.84511C6.16561 14.2743 7.30957 14.1047 8.28047 13.7637C10.1894 13.0957 11.3784 11.8513 11.8474 10.0272C11.9945 9.45264 12.0672 8.86595 12.0672 8.26541C12.0672 8.10446 12.062 7.94524 12.0499 7.78429Z" fill="#212121"/>
</svg>
