<svg width="16" height="13" viewBox="0 0 16 13" fill="none" xmlns="http://www.w3.org/2000/svg">
<path d="M15.9169 2.00279L15.2133 1.29774C15.1027 1.18714 14.9246 1.18561 14.8124 1.29313L14.7633 1.35611L13.3639 3.16713C13.2165 3.31613 13.2303 3.57111 13.3931 3.73394L13.5436 3.8814C13.7065 4.04422 13.9599 4.05651 14.1074 3.90751L15.8662 2.44518L15.9215 2.3991C16.0275 2.2885 16.0259 2.11185 15.9169 2.00279Z" fill="#212121"/>
<path d="M13.3293 0.313138L12.38 0.0136051C12.231 -0.0340129 12.0728 0.0473985 12.0236 0.194861L12.0098 0.274736L11.6058 2.52814C11.5444 2.72783 11.675 2.94749 11.8946 3.01661L12.0974 3.07652C12.317 3.14564 12.5474 3.03812 12.6089 2.83996L13.4906 0.730947L13.5182 0.66336C13.5597 0.515898 13.4783 0.360756 13.3293 0.313138Z" fill="#212121"/>
<path d="M7.29219 8.68918C7.43505 8.71683 7.44887 8.6093 7.40125 8.48642C6.51187 6.1178 5.29377 4.88127 4.6901 4.41277C4.6901 4.41277 4.0726 3.85518 3.47968 3.88283C3.29075 3.89205 2.08954 3.61863 0.0035679 12.666C-0.0240813 12.7874 0.114165 12.8872 0.238586 12.8826L2.53039 12.9379C2.63331 12.9333 2.71472 12.8673 2.74544 12.7075C2.97892 11.514 3.73928 8.07321 4.10179 7.4849C4.25847 7.23145 4.51192 7.17462 4.66399 7.22377C5.31835 7.43421 6.93583 8.4603 7.29219 8.68918Z" fill="#212121"/>
<path d="M4.84519 7.97953C4.70233 7.95188 4.68851 8.0594 4.73613 8.18229C5.62551 10.5509 6.84361 11.7874 7.44728 12.2559C7.44728 12.2559 8.06478 12.8135 8.6577 12.7859C8.84663 12.7767 10.0571 13.2037 12.143 4.15627C12.1707 4.03492 12.0324 3.87977 11.908 3.88592H9.6162C9.51329 3.89053 9.43188 3.95658 9.40115 4.11633C9.16767 5.30985 8.3981 8.59856 8.03406 9.18534C7.87738 9.43879 7.62393 9.49563 7.47186 9.44647C6.81749 9.23449 5.20002 8.20687 4.84519 7.97953Z" fill="#212121"/>
</svg>
