<svg width="13" height="15" viewBox="0 0 13 15" fill="none" xmlns="http://www.w3.org/2000/svg">
<path d="M11.6662 11.2313C11.5019 11.2491 9.75935 11.4329 8.11969 11.6054C6.62496 11.7625 5.21687 11.909 5.17153 11.9099C4.13429 11.9171 3.61931 11.305 3.61931 10.5576C3.61931 10.539 3.61931 7.88234 3.61931 7.86372C3.61931 7.11636 4.13429 6.50422 5.17153 6.5115C5.21687 6.5115 6.62739 6.65887 8.12373 6.81595C9.77474 6.98923 11.5294 7.17547 11.6703 7.19004C11.6565 6.43701 11.1796 5.79734 10.5124 5.5439C10.493 5.53661 10.4735 5.53013 10.4533 5.52284C10.4241 5.51232 10.3942 5.5026 10.3634 5.49208L9.01927 5.13499L3.00474 3.53824C2.39988 3.43217 1.91406 3.4427 1.52297 3.5431C1.50839 3.54715 1.49463 3.55039 1.48005 3.55444C1.46791 3.55767 1.45576 3.56091 1.44361 3.56496C1.43066 3.56901 1.41851 3.57306 1.40637 3.5763C0.966694 3.71881 0.601514 4.02569 0.382892 4.42569C0.379653 4.43135 0.377224 4.43702 0.373985 4.44188C0.0339065 5.07831 -0.0219637 5.94632 0.00799566 6.80705V11.6119C-0.0203442 12.4418 0.0298579 13.2783 0.338358 13.9074C0.340787 13.9115 0.342407 13.9163 0.344836 13.9204C0.350504 13.9325 0.356981 13.9447 0.363459 13.9568C0.378034 13.9843 0.392609 14.0111 0.407993 14.0378C0.412851 14.0459 0.41771 14.0548 0.422568 14.0629C0.424187 14.0661 0.426617 14.0685 0.428236 14.0718C0.635522 14.4102 0.952119 14.6742 1.32864 14.8159C1.3424 14.8208 1.35617 14.8256 1.36993 14.8305C1.37398 14.8321 1.37884 14.8337 1.38289 14.8345C1.45252 14.858 1.5254 14.8774 1.60232 14.8944C1.97964 14.977 2.44118 14.9795 3.00636 14.8807L7.02334 13.8143L10.3658 12.9268C10.4071 12.9131 10.446 12.8993 10.484 12.8856C10.4857 12.8847 10.4873 12.8839 10.4897 12.8839C11.1699 12.637 11.6581 11.9916 11.6727 11.2297C11.6695 11.2313 11.667 11.2313 11.6662 11.2313Z" fill="#212121"/>
<path d="M11.8721 2.03391L11.0146 1.44444C10.8802 1.35214 10.6972 1.38453 10.6024 1.51651L10.5644 1.591L9.47207 3.71973C9.34981 3.9003 9.41215 4.15941 9.61134 4.29625L9.79515 4.41851C9.99434 4.55455 10.2567 4.51892 10.3798 4.33835L11.9061 2.50031L11.9538 2.44201C12.0405 2.30598 12.0057 2.12541 11.8721 2.03391Z" fill="#212121"/>
<path d="M8.88975 0.794099L7.85737 0.669404C7.69543 0.649971 7.54887 0.76333 7.52539 0.924463L7.5262 1.00867L7.5432 3.40056C7.5181 3.61756 7.69381 3.81837 7.93349 3.84671L8.15292 3.87019C8.39259 3.89853 8.60878 3.7455 8.63389 3.5285L9.1351 1.19248L9.15129 1.11879C9.16506 0.957661 9.05089 0.814342 8.88975 0.794099Z" fill="#212121"/>
<path opacity="0.53" d="M0.284058 4.44271C0.287296 4.43704 0.289726 4.43137 0.292964 4.42651C0.289726 4.43137 0.287296 4.43704 0.284058 4.44271Z" fill="#212121"/>
</svg>
